#!OML:ASF I:\golf\golf\golf 2\Subject 1\2002-09-07\Subject1.ASF
:FULLY-SPECIFIED
:DEGREES
211
root -5.87714 17.696 2.79467 -2.01125 42.6327 -13.6582
lowerback 1.05817 -9.28684 -15.6916
upperback 0.497909 -12.2938 -3.21525
thorax 2.47913 -6.20409 4.69514
lowerneck -4.91677 21.3954 1.95537
upperneck 18.3514 32.1122 -11.9693
head 8.92364 14.296 -0.789186
rclavicle -4.79071e-014 -1.27222e-014
rhumerus 5.76108 -15.3767 -82.9287
rradius 101.695
rwrist -20.8254
rhand -61.4003 25.8756
rfingers 7.12502
rthumb -33.4839 -1.02124
lclavicle -4.79071e-014 -1.27222e-014
lhumerus 96.8162 -53.3655 37.3938
lradius 29.6777
lwrist -2.5901
lhand -14.5807 3.84105
lfingers 7.12502
lthumb -168.431 213.502
rfemur -28.7871 16.9326 27.0348
rtibia 31.6027
rfoot -5.37562 22.3874
rtoes 27.9058
lfemur -2.77158 20.3958 9.62099
ltibia 36.5653
lfoot 1.77303 14.3528
ltoes -32.3876
212
root -5.87241 17.693 2.83154 -1.80167 42.1838 -13.5035
lowerback 1.02313 -9.3946 -15.5772
upperback 0.332809 -12.4463 -3.28232
thorax 2.31146 -6.25866 4.56832
lowerneck -4.88203 21.4711 1.91954
upperneck 17.9737 32.1581 -12.0809
head 8.80442 14.3375 -0.832932
rclavicle -1.0794e-013 3.18055e-015
rhumerus 7.15087 -15.6861 -81.9931
rradius 102.285
rwrist -19.0814
rhand -61.4986 25.8199
rfingers 7.12502
rthumb -33.5773 -1.05668
lclavicle -1.0794e-013 3.18055e-015
lhumerus 97.2661 -52.7838 38.3038
lradius 29.9993
lwrist -2.8237
lhand -14.2428 3.67615
lfingers 7.12502
lthumb -168.105 213.318
rfemur -28.8754 17.4034 27.038
rtibia 31.8028
rfoot -5.18403 22.38
rtoes 28.9044
lfemur -2.63119 20.5727 9.65921
ltibia 36.6424
lfoot 2.42695 14.499
ltoes -33.3181
213
root -5.86747 17.6904 2.86847 -1.55746 41.7796 -13.2062
lowerback 1.1006 -9.53809 -15.6283
upperback 0.145632 -12.6704 -3.32086
thorax 2.11193 -6.34712 4.56572
lowerneck -4.94265 21.5822 1.72982
upperneck 17.6579 32.2779 -12.1631
head 8.69999 14.3967 -0.832956
rclavicle 1.78509e-013 6.67916e-014
rhumerus 8.55833 -15.9272 -81.049
rradius 102.958
rwrist -17.3869
rhand -61.245 26.1685
rfingers 7.12502
rthumb -33.3362 -0.760163
lclavicle 1.78509e-013 6.67916e-014
lhumerus 97.8893 -52.0281 38.9146
lradius 30.2739
lwrist -2.7788
lhand -14.1264 3.44229
lfingers 7.12502
lthumb -167.993 213.078
rfemur -28.8936 17.7571 26.9523
rtibia 32.0063
rfoot -5.06084 22.4165
rtoes 29.794
lfemur -2.41452 20.672 9.59548
ltibia 36.6824
lfoot 2.8581 14.6261
ltoes -33.8486
214
root -5.86101 17.6913 2.90517 -1.31572 41.4161 -12.7331
lowerback 1.27675 -9.65724 -15.8798
upperback 0.0287334 -12.8738 -3.36576
thorax 1.97054 -6.43231 4.6651
lowerneck -5.1344 21.6724 1.48197
upperneck 17.4177 32.3864 -12.2122
head 8.62786 14.4371 -0.802154
rclavicle -4.92986e-014 9.54166e-015
rhumerus 10.0338 -16.1926 -80.0373
rradius 103.558
rwrist -15.8424
rhand -60.9258 25.6048
rfingers 7.12502
rthumb -33.0328 -1.38846
lclavicle -4.92986e-014 9.54166e-015
lhumerus 98.4458 -51.292 39.7418
lradius 30.4938
lwrist -2.81744
lhand -13.9586 3.2
lfingers 7.12502
lthumb -167.831 212.826
rfemur -28.7776 17.9863 26.7587
rtibia 32.2186
rfoot -4.97496 22.5539
rtoes 30.6007
lfemur -2.03756 20.599 9.38834
ltibia 36.6701
lfoot 2.95449 14.86
ltoes -33.0884
215
root -5.85557 17.6935 2.94154 -1.03773 41.0461 -12.3061
lowerback 1.32483 -9.78734 -16.0484
upperback -0.0767973 -13.0653 -3.41826
thorax 1.89145 -6.51508 4.69246
lowerneck -5.28981 21.7426 1.24501
upperneck 17.2079 32.4599 -12.2185
head 8.55114 14.4661 -0.76958
rclavicle 4.39314e-014 1.59028e-014
rhumerus 11.4847 -16.3941 -78.9975
rradius 104.02
rwrist -14.3916
rhand -60.9274 25.7243
rfingers 7.12502
rthumb -33.0343 -1.26872
lclavicle 4.39314e-014 1.59028e-014
lhumerus 98.8681 -50.6131 40.6538
lradius 30.7867
lwrist -2.82435
lhand -13.5577 3.13559
lfingers 7.12502
lthumb -167.444 212.738
rfemur -28.7503 18.2202 26.5779
rtibia 32.4295
rfoot -4.97873 22.6923
rtoes 30.8837
lfemur -1.74296 20.5623 9.18907
ltibia 36.6264
lfoot 3.02035 15.2023
ltoes -30.954
216
root -5.85125 17.6928 2.97693 -0.678866 40.6384 -11.9443
lowerback 1.26279 -9.90663 -16.0725
upperback -0.24463 -13.2274 -3.48818
thorax 1.76512 -6.5766 4.62387
lowerneck -5.26563 21.8145 1.04955
upperneck 16.8662 32.502 -12.2569
head 8.40922 14.5031 -0.782326
rclavicle -1.636e-013 -9.54166e-015
rhumerus 12.8686 -16.6406 -77.9174
rradius 104.443
rwrist -13.0597
rhand -60.9627 26.2059
rfingers 7.12502
rthumb -33.0678 -0.780023
lclavicle -1.636e-013 -9.54166e-015
lhumerus 99.7648 -49.883 40.8924
lradius 31.1287
lwrist -2.28729
lhand -13.3009 3.31391
lfingers 7.12502
lthumb -167.197 212.901
rfemur -28.8665 18.4747 26.4131
rtibia 32.6264
rfoot -4.99497 22.8449
rtoes 30.9349
lfemur -1.57109 20.6514 9.02409
ltibia 36.5921
lfoot 3.17528 15.4755
ltoes -28.0863
217
root -5.84715 17.6913 3.00777 -0.344613 40.2449 -11.6492
lowerback 1.27279 -9.96536 -16.0942
upperback -0.438379 -13.3292 -3.51509
thorax 1.56848 -6.60407 4.62243
lowerneck -5.12717 21.8461 0.947018
upperneck 16.4088 32.4904 -12.4681
head 8.25194 14.5218 -0.8723
rclavicle 1.19271e-013 1.04958e-013
rhumerus 14.2446 -17.0578 -76.7074
rradius 104.845
rwrist -11.8196
rhand -60.937 26.1128
rfingers 7.12502
rthumb -33.0434 -0.878209
lclavicle 1.19271e-013 1.04958e-013
lhumerus 100.786 -49.271 41.152
lradius 31.5144
lwrist -1.47724
lhand -12.9986 3.64901
lfingers 7.12502
lthumb -166.905 213.218
rfemur -29.0126 18.6924 26.2849
rtibia 32.8076
rfoot -4.85493 23.07
rtoes 31.4164
lfemur -1.44814 20.6952 8.88259
ltibia 36.5837
lfoot 3.63865 15.5601
ltoes -27.138
218
root -5.84181 17.6903 3.03626 -0.102954 39.9052 -11.4112
lowerback 1.33231 -10.0282 -16.0311
upperback -0.590736 -13.4416 -3.56612
thorax 1.36661 -6.63846 4.56045
lowerneck -5.16117 21.8649 0.8827
upperneck 16.1728 32.5003 -12.6073
head 8.19353 14.5282 -0.910062
rclavicle 7.15625e-015 -3.81667e-014
rhumerus 15.5944 -17.5307 -75.5564
rradius 105.229
rwrist -10.6395
rhand -60.9093 26.0228
rfingers 7.12502
rthumb -33.017 -0.973859
lclavicle 7.15625e-015 -3.81667e-014
lhumerus 101.376 -48.8468 41.9259
lradius 31.9394
lwrist -0.939191
lhand -12.7651 3.62989
lfingers 7.12502
lthumb -166.68 213.184
rfemur -29.0941 18.7956 26.2211
rtibia 32.9844
rfoot -4.74187 23.3358
rtoes 31.7799
lfemur -1.30652 20.6614 8.77855
ltibia 36.5696
lfoot 4.27663 15.5593
ltoes -28.9465
219
root -5.83527 17.6906 3.06814 0.151631 39.5408 -11.1314
lowerback 1.31281 -10.0946 -15.9089
upperback -0.718219 -13.5376 -3.69725
thorax 1.19931 -6.667 4.37377
lowerneck -5.31079 21.9266 0.846268
upperneck 16.1003 32.5785 -12.6034
head 8.19276 14.5582 -0.881502
rclavicle 1.59028e-014 -6.36111e-015
rhumerus 16.873 -18.0097 -74.4965
rradius 105.625
rwrist -9.37729
rhand -60.8565 26.6079
rfingers 7.12502
rthumb -32.9668 -0.39934
lclavicle 1.59028e-014 -6.36111e-015
lhumerus 101.926 -48.4784 42.635
lradius 32.3921
lwrist -0.49221
lhand -12.942 3.47979
lfingers 7.12502
lthumb -166.851 213.045
rfemur -29.1455 18.9593 26.1142
rtibia 33.1589
rfoot -4.63879 23.5487
rtoes 32.2902
lfemur -1.10021 20.6986 8.66325
ltibia 36.5257
lfoot 4.71625 15.6259
ltoes -30.8046
220
root -5.82956 17.6925 3.10041 0.477036 39.17 -10.7317
lowerback 1.25285 -10.1281 -15.9495
upperback -0.818848 -13.5788 -3.83226
thorax 1.1074 -6.67359 4.25425
lowerneck -5.34921 21.9866 0.893515
upperneck 15.8025 32.6432 -12.8251
head 8.15076 14.5923 -0.942181
rclavicle 5.52621e-014 0
rhumerus 18.1202 -18.4908 -73.3173
rradius 106.063
rwrist -7.97092
rhand -60.8514 27.4549
rfingers 7.12502
rthumb -32.962 0.44668
lclavicle 5.52621e-014 0
lhumerus 102.835 -48.0199 42.9434
lradius 32.8959
lwrist -0.151627
lhand -13.485 3.66097
lfingers 7.12502
lthumb -167.374 213.259
rfemur -29.196 19.1904 25.8882
rtibia 33.3292
rfoot -4.55374 23.711
rtoes 32.9474
lfemur -0.873505 20.7336 8.44626
ltibia 36.4438
lfoot 4.93445 15.8576
ltoes -30.6959
221
root -5.82462 17.6934 3.13059 0.782181 38.8114 -10.3036
lowerback 1.24341 -10.1326 -16.0823
upperback -0.910097 -13.5917 -3.9512
thorax 1.01626 -6.66649 4.206
lowerneck -5.3499 22.0055 0.933657
upperneck 15.5022 32.6478 -13.0481
head 8.09656 14.6015 -1.0156
rclavicle -9.14409e-015 -2.22639e-014
rhumerus 19.3298 -19.0179 -72.0661
rradius 106.52
rwrist -6.41226
rhand -60.9456 27.2128
rfingers 7.12502
rthumb -33.0516 0.223467
lclavicle -9.14409e-015 -2.22639e-014
lhumerus 103.828 -47.559 43.136
lradius 33.4339
lwrist -0.00158583
lhand -14.322 3.69291
lfingers 7.12502
lthumb -168.181 213.339
rfemur -29.2061 19.3955 25.6489
rtibia 33.4843
rfoot -4.60434 23.8503
rtoes 33.1628
lfemur -0.621455 20.6374 8.1896
ltibia 36.3402
lfoot 5.05109 16.163
ltoes -29.5358
222
root -5.82078 17.6942 3.15967 1.05573 38.4479 -9.95929
lowerback 1.31088 -10.2766 -16.1743
upperback -1.01313 -13.8104 -3.88173
thorax 0.946113 -6.76558 4.32092
lowerneck -5.82068 22.1754 0.233926
upperneck 15.3757 32.8967 -12.9059
head 8.01564 14.6796 -0.850082
rclavicle 3.93594e-014 4.77083e-014
rhumerus 20.9188 -19.1422 -70.9717
rradius 106.863
rwrist -4.81751
rhand -60.9348 26.0592
rfingers 7.12502
rthumb -33.0413 -0.932237
lclavicle 3.93594e-014 4.77083e-014
lhumerus 104.255 -46.726 43.8694
lradius 33.827
lwrist 0.183059
lhand -15.1353 3.45379
lfingers 7.12502
lthumb -168.966 213.144
rfemur -29.2359 19.6422 25.4605
rtibia 33.6123
rfoot -4.64632 23.9422
rtoes 33.2114
lfemur -0.392901 20.5451 7.9893
ltibia 36.2476
lfoot 5.32903 16.3291
ltoes -28.7712
223
root -5.81768 17.695 3.18535 1.23586 38.1225 -9.79858
lowerback 1.39537 -10.4793 -16.0631
upperback -1.08819 -14.108 -3.73534
thorax 0.886677 -6.90919 4.40911
lowerneck -6.48881 22.4082 -0.788794
upperneck 15.09 33.2243 -12.7051
head 7.85592 14.7899 -0.62775
rclavicle 7.63333e-014 -1.59028e-014
rhumerus 22.6864 -19.1707 -70.0162
rradius 107.204
rwrist -3.41254
rhand -60.705 25.061
rfingers 7.12502
rthumb -32.8228 -1.97643
lclavicle 7.63333e-014 -1.59028e-014
lhumerus 104.582 -45.6898 44.6541
lradius 34.1714
lwrist 0.543924
lhand -15.8057 3.09312
lfingers 7.12502
lthumb -169.612 212.817
rfemur -29.2889 19.89 25.4035
rtibia 33.7158
rfoot -4.63235 24.009
rtoes 33.159
lfemur -0.218534 20.5479 7.96356
ltibia 36.1698
lfoot 5.75525 16.336
ltoes -28.5165
